# vtk DataFile Version 5.1
vtk output
ASCII
DATASET POLYDATA
POINTS 121 float
0.00000 -0.05000 0.00000 
0.01000 -0.05000 0.00000 
0.02000 -0.05000 0.00000 
0.03000 -0.05000 0.00000 
0.04000 -0.05000 0.00000 
0.05000 -0.05000 0.00000 
0.06000 -0.05000 0.00000 
0.07000 -0.05000 0.00000 
0.08000 -0.05000 0.00000 
0.09000 -0.05000 0.00000 
0.10000 -0.05000 0.00000 
0.00000 -0.04000 0.00000 
0.01000 -0.04000 0.00000 
0.02000 -0.04000 0.00000 
0.03000 -0.04000 0.00000 
0.04000 -0.04000 0.00000 
0.05000 -0.04000 0.00000 
0.06000 -0.04000 0.00000 
0.07000 -0.04000 0.00000 
0.08000 -0.04000 0.00000 
0.09000 -0.04000 0.00000 
0.10000 -0.04000 0.00000 
0.00000 -0.03000 0.00000 
0.01000 -0.03000 0.00000 
0.02000 -0.03000 0.00000 
0.03000 -0.03000 0.00000 
0.04000 -0.03000 0.00000 
0.05000 -0.03000 0.00000 
0.06000 -0.03000 0.00000 
0.07000 -0.03000 0.00000 
0.08000 -0.03000 0.00000 
0.09000 -0.03000 0.00000 
0.10000 -0.03000 0.00000 
0.00000 -0.02000 0.00000 
0.01000 -0.02000 0.00000 
0.02000 -0.02000 0.00000 
0.03000 -0.02000 0.00000 
0.04000 -0.02000 0.00000 
0.05000 -0.02000 0.00000 
0.06000 -0.02000 0.00000 
0.07000 -0.02000 0.00000 
0.08000 -0.02000 0.00000 
0.09000 -0.02000 0.00000 
0.10000 -0.02000 0.00000 
0.00000 -0.01000 0.00000 
0.01000 -0.01000 0.00000 
0.02000 -0.01000 0.00000 
0.03000 -0.01000 0.00000 
0.04000 -0.01000 0.00000 
0.05000 -0.01000 0.00000 
0.06000 -0.01000 0.00000 
0.07000 -0.01000 0.00000 
0.08000 -0.01000 0.00000 
0.09000 -0.01000 0.00000 
0.10000 -0.01000 0.00000 
0.00000 0.00000 0.00000 
0.01000 0.00000 0.00000 
0.02000 0.00000 0.00000 
0.03000 0.00000 0.00000 
0.04000 0.00000 0.00000 
0.05000 0.00000 0.00000 
0.06000 0.00000 0.00000 
0.07000 0.00000 0.00000 
0.08000 0.00000 0.00000 
0.09000 0.00000 0.00000 
0.10000 0.00000 0.00000 
0.00000 0.01000 0.00000 
0.01000 0.01000 0.00000 
0.02000 0.01000 0.00000 
0.03000 0.01000 0.00000 
0.04000 0.01000 0.00000 
0.05000 0.01000 0.00000 
0.06000 0.01000 0.00000 
0.07000 0.01000 0.00000 
0.08000 0.01000 0.00000 
0.09000 0.01000 0.00000 
0.10000 0.01000 0.00000 
0.00000 0.02000 0.00000 
0.01000 0.02000 0.00000 
0.02000 0.02000 0.00000 
0.03000 0.02000 0.00000 
0.04000 0.02000 0.00000 
0.05000 0.02000 0.00000 
0.06000 0.02000 0.00000 
0.07000 0.02000 0.00000 
0.08000 0.02000 0.00000 
0.09000 0.02000 0.00000 
0.10000 0.02000 0.00000 
0.00000 0.03000 0.00000 
0.01000 0.03000 0.00000 
0.02000 0.03000 0.00000 
0.03000 0.03000 0.00000 
0.04000 0.03000 0.00000 
0.05000 0.03000 0.00000 
0.06000 0.03000 0.00000 
0.07000 0.03000 0.00000 
0.08000 0.03000 0.00000 
0.09000 0.03000 0.00000 
0.10000 0.03000 0.00000 
0.00000 0.04000 0.00000 
0.01000 0.04000 0.00000 
0.02000 0.04000 0.00000 
0.03000 0.04000 0.00000 
0.04000 0.04000 0.00000 
0.05000 0.04000 0.00000 
0.06000 0.04000 0.00000 
0.07000 0.04000 0.00000 
0.08000 0.04000 0.00000 
0.09000 0.04000 0.00000 
0.10000 0.04000 0.00000 
0.00000 0.05000 0.00000 
0.01000 0.05000 0.00000 
0.02000 0.05000 0.00000 
0.03000 0.05000 0.00000 
0.04000 0.05000 0.00000 
0.05000 0.05000 0.00000 
0.06000 0.05000 0.00000 
0.07000 0.05000 0.00000 
0.08000 0.05000 0.00000 
0.09000 0.05000 0.00000 
0.10000 0.05000 0.00000 
POLYGONS 200 800
3 11 23 22
3 23 11 12
3 11 1 12
3 1 11 0
3 99 111 110
3 111 99 100
3 47 48 58
3 48 59 58
3 48 36 37
3 36 48 47
3 59 70 58
3 70 69 58
3 80 70 81
3 70 80 69
3 86 76 87
3 76 86 75
3 34 44 33
3 44 34 45
3 34 33 22
3 23 34 22
3 36 24 25
3 24 36 35
3 24 34 23
3 34 24 35
3 24 23 12
3 24 12 13
3 1 2 12
3 12 2 13
3 36 26 37
3 26 36 25
3 14 24 13
3 24 14 25
3 2 14 13
3 14 2 3
3 14 26 25
3 26 14 15
3 4 14 3
3 14 4 15
3 99 88 100
3 88 89 100
3 66 78 77
3 78 66 67
3 88 78 89
3 78 88 77
3 90 80 91
3 80 90 79
3 78 90 89
3 90 78 79
3 89 90 100
3 100 90 101
3 112 111 100
3 112 100 101
3 92 80 81
3 80 92 91
3 90 102 101
3 102 90 91
3 102 112 101
3 112 102 113
3 92 102 91
3 102 92 103
3 102 114 113
3 114 102 103
3 48 49 59
3 59 49 60
3 68 80 79
3 80 68 69
3 78 68 79
3 68 78 67
3 69 68 58
3 68 57 58
3 68 56 57
3 56 68 67
3 56 66 55
3 66 56 67
3 56 44 45
3 44 56 55
3 46 34 35
3 34 46 45
3 46 56 45
3 56 46 57
3 46 36 47
3 36 46 35
3 46 47 58
3 57 46 58
3 71 70 59
3 71 59 60
3 20 8 9
3 8 20 19
3 43 42 32
3 42 31 32
3 54 42 43
3 42 54 53
3 118 108 119
3 108 118 107
3 21 9 10
3 21 20 9
3 31 21 32
3 20 21 31
3 119 109 120
3 108 109 119
3 64 54 65
3 54 64 53
3 76 64 65
3 64 76 75
3 74 64 75
3 64 74 63
3 86 74 75
3 74 86 85
3 62 74 73
3 63 74 62
3 52 64 63
3 64 52 53
3 52 42 53
3 42 52 41
3 52 63 62
3 52 62 51
3 8 18 7
3 18 8 19
3 52 40 41
3 40 52 51
3 20 30 19
3 30 20 31
3 42 30 31
3 30 42 41
3 30 18 19
3 18 30 29
3 30 40 29
3 40 30 41
3 84 74 85
3 74 84 73
3 96 84 85
3 84 96 95
3 86 97 85
3 97 96 85
3 97 108 107
3 96 97 107
3 62 50 51
3 50 62 61
3 49 50 60
3 50 61 60
3 106 118 117
3 118 106 107
3 96 106 95
3 106 96 107
3 72 62 73
3 62 72 61
3 72 71 60
3 61 72 60
3 98 86 87
3 98 97 86
3 98 109 108
3 97 98 108
3 16 4 5
3 4 16 15
3 114 104 115
3 104 114 103
3 18 17 7
3 17 6 7
3 6 17 5
3 17 16 5
3 116 105 117
3 105 106 117
3 105 116 115
3 104 105 115
3 39 40 51
3 50 39 51
3 84 83 73
3 83 72 73
3 38 48 37
3 38 49 48
3 38 50 49
3 38 39 50
3 28 18 29
3 28 17 18
3 40 28 29
3 39 28 40
3 92 93 103
3 93 104 103
3 26 27 37
3 27 38 37
3 27 26 15
3 16 27 15
3 38 27 39
3 27 28 39
3 17 27 16
3 28 27 17
3 72 82 71
3 83 82 72
3 70 82 81
3 71 82 70
3 82 92 81
3 82 93 92
3 82 94 93
3 94 82 83
3 106 94 95
3 105 94 106
3 94 84 95
3 94 83 84
3 94 105 104
3 93 94 104
