$NOD
330
1 0.00000 0.00000 0.50000
2 0.00000 0.00000 0.00000
3 0.00000 0.05000 0.50000
4 0.00000 0.05000 0.00000
5 0.50000 0.00000 0.50000
6 0.50000 0.00000 0.00000
7 0.50000 0.05000 0.50000
8 0.50000 0.05000 0.00000
9 0.00000 0.00000 0.05000
10 0.00000 0.00000 0.10000
11 0.00000 0.00000 0.15000
12 0.00000 0.00000 0.20000
13 0.00000 0.00000 0.25000
14 0.00000 0.00000 0.30000
15 0.00000 0.00000 0.35000
16 0.00000 0.00000 0.40000
17 0.00000 0.00000 0.45000
18 0.00000 0.05000 0.05000
19 0.00000 0.05000 0.10000
20 0.00000 0.05000 0.15000
21 0.00000 0.05000 0.20000
22 0.00000 0.05000 0.25000
23 0.00000 0.05000 0.30000
24 0.00000 0.05000 0.35000
25 0.00000 0.05000 0.40000
26 0.00000 0.05000 0.45000
27 0.50000 0.00000 0.05000
28 0.50000 0.00000 0.10000
29 0.50000 0.00000 0.15000
30 0.50000 0.00000 0.20000
31 0.50000 0.00000 0.25000
32 0.50000 0.00000 0.30000
33 0.50000 0.00000 0.35000
34 0.50000 0.00000 0.40000
35 0.50000 0.00000 0.45000
36 0.50000 0.05000 0.05000
37 0.50000 0.05000 0.10000
38 0.50000 0.05000 0.15000
39 0.50000 0.05000 0.20000
40 0.50000 0.05000 0.25000
41 0.50000 0.05000 0.30000
42 0.50000 0.05000 0.35000
43 0.50000 0.05000 0.40000
44 0.50000 0.05000 0.45000
45 0.05000 0.00000 0.00000
46 0.10000 0.00000 0.00000
47 0.15000 0.00000 0.00000
48 0.20000 0.00000 0.00000
49 0.25000 0.00000 0.00000
50 0.30000 0.00000 0.00000
51 0.35000 0.00000 0.00000
52 0.40000 0.00000 0.00000
53 0.45000 0.00000 0.00000
54 0.05000 0.00000 0.50000
55 0.10000 0.00000 0.50000
56 0.15000 0.00000 0.50000
57 0.20000 0.00000 0.50000
58 0.25000 0.00000 0.50000
59 0.30000 0.00000 0.50000
60 0.35000 0.00000 0.50000
61 0.40000 0.00000 0.50000
62 0.45000 0.00000 0.50000
63 0.05000 0.05000 0.00000
64 0.10000 0.05000 0.00000
65 0.15000 0.05000 0.00000
66 0.20000 0.05000 0.00000
67 0.25000 0.05000 0.00000
68 0.30000 0.05000 0.00000
69 0.35000 0.05000 0.00000
70 0.40000 0.05000 0.00000
71 0.45000 0.05000 0.00000
72 0.05000 0.05000 0.50000
73 0.10000 0.05000 0.50000
74 0.15000 0.05000 0.50000
75 0.20000 0.05000 0.50000
76 0.25000 0.05000 0.50000
77 0.30000 0.05000 0.50000
78 0.35000 0.05000 0.50000
79 0.40000 0.05000 0.50000
80 0.45000 0.05000 0.50000
81 0.00000 0.02500 0.47500
82 0.00000 0.02500 0.17500
83 0.00000 0.02500 0.37500
84 0.00000 0.02500 0.32500
85 0.00000 0.02500 0.07500
86 0.00000 0.02500 0.12500
87 0.00000 0.02500 0.22500
88 0.00000 0.02500 0.02500
89 0.00000 0.02500 0.27500
90 0.00000 0.02500 0.42500
91 0.50000 0.02500 0.47500
92 0.50000 0.02500 0.17500
93 0.50000 0.02500 0.37500
94 0.50000 0.02500 0.32500
95 0.50000 0.02500 0.07500
96 0.50000 0.02500 0.02500
97 0.50000 0.02500 0.12500
98 0.50000 0.02500 0.22500
99 0.50000 0.02500 0.27500
100 0.50000 0.02500 0.42500
101 0.04330 0.00000 0.22500
102 0.27342 0.00000 0.04239
103 0.45670 0.00000 0.27500
104 0.23196 0.00000 0.45250
105 0.45670 0.00000 0.17500
106 0.17500 0.00000 0.04330
107 0.04330 0.00000 0.32500
108 0.32564 0.00000 0.45571
109 0.45719 0.00000 0.37604
110 0.37934 0.00000 0.04481
111 0.03980 0.00000 0.12701
112 0.12602 0.00000 0.45564
113 0.04775 0.00000 0.42228
114 0.07530 0.00000 0.04147
115 0.45766 0.00000 0.07521
116 0.41866 0.00000 0.45621
117 0.45678 0.00000 0.32517
118 0.41362 0.00000 0.29966
119 0.41343 0.00000 0.24994
120 0.37035 0.00000 0.27457
121 0.37014 0.00000 0.22492
122 0.32685 0.00000 0.24991
123 0.32795 0.00000 0.29958
124 0.28369 0.00000 0.27492
125 0.28354 0.00000 0.22497
126 0.24023 0.00000 0.24998
127 0.24020 0.00000 0.19999
128 0.24019 0.00000 0.30000
129 0.19690 0.00000 0.27500
130 0.19689 0.00000 0.32500
131 0.28349 0.00000 0.17500
132 0.24183 0.00000 0.14777
133 0.19717 0.00000 0.17463
134 0.24019 0.00000 0.35000
135 0.15359 0.00000 0.30000
136 0.15359 0.00000 0.35000
137 0.15359 0.00000 0.25000
138 0.11029 0.00000 0.27500
139 0.28506 0.00000 0.12419
140 0.32706 0.00000 0.14987
141 0.19936 0.00000 0.12323
142 0.15359 0.00000 0.15000
143 0.32679 0.00000 0.10000
144 0.36930 0.00000 0.12643
145 0.11029 0.00000 0.22500
146 0.15238 0.00000 0.09451
147 0.11078 0.00000 0.12561
148 0.41341 0.00000 0.19998
149 0.37002 0.00000 0.17520
150 0.41325 0.00000 0.15027
151 0.40912 0.00000 0.09247
152 0.19741 0.00000 0.37410
153 0.15177 0.00000 0.40715
154 0.11075 0.00000 0.37449
155 0.24019 0.00000 0.40000
156 0.28439 0.00000 0.37503
157 0.28147 0.00000 0.42493
158 0.32761 0.00000 0.40250
159 0.37078 0.00000 0.42906
160 0.37220 0.00000 0.37820
161 0.32783 0.00000 0.35052
162 0.41456 0.00000 0.40570
163 0.15364 0.00000 0.19994
164 0.11029 0.00000 0.17500
165 0.32645 0.00000 0.05029
166 0.45612 0.00000 0.12383
167 0.45671 0.00000 0.22499
168 0.04330 0.00000 0.17500
169 0.12545 0.00000 0.04338
170 0.17500 0.00000 0.45670
171 0.04077 0.00000 0.37295
172 0.22474 0.00000 0.04211
173 0.24499 0.00000 0.09160
174 0.32682 0.00000 0.19999
175 0.04330 0.00000 0.27500
176 0.19695 0.00000 0.22492
177 0.41363 0.00000 0.35033
178 0.28404 0.00000 0.32501
179 0.11029 0.00000 0.32500
180 0.37114 0.00000 0.32417
181 0.04693 0.00000 0.07795
182 0.42543 0.00000 0.04162
183 0.07674 0.00000 0.46005
184 0.45887 0.00000 0.42355
185 0.10000 0.00000 0.08097
186 0.10008 0.00000 0.41901
187 0.19964 0.00000 0.07965
188 0.20000 0.00000 0.41962
189 0.27573 0.00000 0.46630
190 0.07679 0.00000 0.35000
191 0.07679 0.00000 0.30000
192 0.07679 0.00000 0.25000
193 0.07679 0.00000 0.20000
194 0.07679 0.00000 0.15000
195 0.36507 0.00000 0.08370
196 0.29134 0.00000 0.08169
197 0.37500 0.00000 0.46906
198 0.03660 0.00000 0.46340
199 0.03660 0.00000 0.03660
200 0.46340 0.00000 0.03660
201 0.46340 0.00000 0.46340
202 0.07568 0.00000 0.38851
203 0.07486 0.00000 0.11231
204 0.23196 0.05000 0.45250
205 0.04330 0.05000 0.22500
206 0.27342 0.05000 0.04239
207 0.45670 0.05000 0.27500
208 0.45670 0.05000 0.17500
209 0.17500 0.05000 0.04330
210 0.04330 0.05000 0.32500
211 0.32564 0.05000 0.45571
212 0.45719 0.05000 0.37604
213 0.37934 0.05000 0.04481
214 0.03980 0.05000 0.12701
215 0.12602 0.05000 0.45564
216 0.04775 0.05000 0.42228
217 0.07530 0.05000 0.04147
218 0.45766 0.05000 0.07521
219 0.41866 0.05000 0.45621
220 0.45678 0.05000 0.32517
221 0.41362 0.05000 0.29966
222 0.41343 0.05000 0.24994
223 0.37035 0.05000 0.27457
224 0.37014 0.05000 0.22492
225 0.32685 0.05000 0.24991
226 0.32795 0.05000 0.29958
227 0.28369 0.05000 0.27492
228 0.28354 0.05000 0.22497
229 0.24023 0.05000 0.24998
230 0.24020 0.05000 0.19999
231 0.24019 0.05000 0.30000
232 0.19690 0.05000 0.27500
233 0.19689 0.05000 0.32500
234 0.28349 0.05000 0.17500
235 0.24183 0.05000 0.14777
236 0.19717 0.05000 0.17463
237 0.24019 0.05000 0.35000
238 0.15359 0.05000 0.30000
239 0.15359 0.05000 0.35000
240 0.15359 0.05000 0.25000
241 0.11029 0.05000 0.27500
242 0.28506 0.05000 0.12419
243 0.32706 0.05000 0.14987
244 0.19936 0.05000 0.12323
245 0.15359 0.05000 0.15000
246 0.32679 0.05000 0.10000
247 0.36930 0.05000 0.12643
248 0.11029 0.05000 0.22500
249 0.15238 0.05000 0.09451
250 0.11078 0.05000 0.12561
251 0.41341 0.05000 0.19998
252 0.37002 0.05000 0.17520
253 0.41325 0.05000 0.15027
254 0.40912 0.05000 0.09247
255 0.19741 0.05000 0.37410
256 0.15177 0.05000 0.40715
257 0.11075 0.05000 0.37449
258 0.24019 0.05000 0.40000
259 0.28439 0.05000 0.37503
260 0.28147 0.05000 0.42493
261 0.32761 0.05000 0.40250
262 0.37078 0.05000 0.42906
263 0.37220 0.05000 0.37820
264 0.32783 0.05000 0.35052
265 0.41456 0.05000 0.40570
266 0.11029 0.05000 0.17500
267 0.32645 0.05000 0.05029
268 0.45612 0.05000 0.12383
269 0.45671 0.05000 0.22499
270 0.19695 0.05000 0.22493
271 0.04330 0.05000 0.17500
272 0.12545 0.05000 0.04338
273 0.17500 0.05000 0.45670
274 0.04077 0.05000 0.37295
275 0.22474 0.05000 0.04211
276 0.24499 0.05000 0.09160
277 0.15365 0.05000 0.19993
278 0.04330 0.05000 0.27500
279 0.32682 0.05000 0.19999
280 0.41363 0.05000 0.35033
281 0.28404 0.05000 0.32501
282 0.11029 0.05000 0.32500
283 0.37114 0.05000 0.32417
284 0.04693 0.05000 0.07795
285 0.42543 0.05000 0.04162
286 0.07674 0.05000 0.46005
287 0.45887 0.05000 0.42355
288 0.10000 0.05000 0.08097
289 0.10008 0.05000 0.41901
290 0.19964 0.05000 0.07965
291 0.20000 0.05000 0.41962
292 0.27573 0.05000 0.46630
293 0.07679 0.05000 0.35000
294 0.07679 0.05000 0.30000
295 0.07679 0.05000 0.25000
296 0.07679 0.05000 0.20000
297 0.07679 0.05000 0.15000
298 0.36507 0.05000 0.08370
299 0.29134 0.05000 0.08169
300 0.37500 0.05000 0.46906
301 0.03660 0.05000 0.46340
302 0.03660 0.05000 0.03660
303 0.46340 0.05000 0.03660
304 0.46340 0.05000 0.46340
305 0.07568 0.05000 0.38851
306 0.07486 0.05000 0.11231
307 0.37500 0.02500 0.00000
308 0.27500 0.02500 0.00000
309 0.42500 0.02500 0.00000
310 0.47500 0.02500 0.00000
311 0.17500 0.02500 0.00000
312 0.07500 0.02500 0.00000
313 0.12500 0.02500 0.00000
314 0.22500 0.02500 0.00000
315 0.02500 0.02500 0.00000
316 0.32500 0.02500 0.00000
317 0.37500 0.02500 0.50000
318 0.27500 0.02500 0.50000
319 0.42500 0.02500 0.50000
320 0.47500 0.02500 0.50000
321 0.07500 0.02500 0.50000
322 0.17500 0.02500 0.50000
323 0.02500 0.02500 0.50000
324 0.12500 0.02500 0.50000
325 0.22500 0.02500 0.50000
326 0.32500 0.02500 0.50000
327 0.09432 0.02509 0.10648
328 0.14842 0.02500 0.09290
329 0.05751 0.02500 0.07264
330 0.08098 0.02500 0.15095
$ENDNOD
$ELM
909
1 4 1 1 4 12 87 271 82
2 4 1 1 4 210 84 14 107
3 4 1 1 4 175 101 13 89
4 4 1 1 4 278 22 101 89
5 4 1 1 4 22 13 101 89
6 4 1 1 4 175 278 101 89
7 4 1 1 4 89 84 14 278
8 4 1 1 4 271 87 101 205
9 4 1 1 4 87 101 12 271
10 4 1 1 4 271 168 12 82
11 4 1 1 4 84 14 278 210
12 4 1 1 4 14 278 175 89
13 4 1 1 4 22 101 87 205
14 4 1 1 4 101 168 12 271
15 4 1 1 4 205 22 101 278
16 4 1 1 4 21 87 271 205
17 4 1 1 4 107 14 210 175
18 4 1 1 4 101 13 22 87
19 4 1 1 4 271 87 21 82
20 4 1 1 4 89 84 278 23
21 4 1 1 4 14 278 210 175
22 4 1 1 4 278 23 84 210
23 4 1 1 4 282 241 238 179
24 4 1 1 4 179 241 238 138
25 4 1 1 4 238 179 138 135
26 4 1 1 4 92 98 167 30
27 4 1 1 4 98 92 167 39
28 4 1 1 4 98 269 39 167
29 4 1 1 4 269 92 39 167
30 4 1 1 4 129 233 135 130
31 4 1 1 4 222 251 269 148
32 4 1 1 4 135 238 233 129
33 4 1 1 4 251 222 121 148
34 4 1 1 4 119 269 148 222
35 4 1 1 4 251 222 224 121
36 4 1 1 4 119 121 222 148
37 4 1 1 4 269 119 148 167
38 4 1 1 4 241 137 238 138
39 4 1 1 4 138 137 238 135
40 4 1 1 4 232 233 238 129
41 4 1 1 4 145 137 241 138
42 4 1 1 4 238 137 129 135
43 4 1 1 4 103 31 40 99
44 4 1 1 4 40 31 103 98
45 4 1 1 4 238 240 137 241
46 4 1 1 4 94 103 41 99
47 4 1 1 4 32 103 94 99
48 4 1 1 4 31 103 98 167
49 4 1 1 4 269 40 207 98
50 4 1 1 4 103 269 98 167
51 4 1 1 4 224 122 174 121
52 4 1 1 4 225 224 122 174
53 4 1 1 4 240 232 238 129
54 4 1 1 4 269 103 222 119
55 4 1 1 4 252 121 149 148
56 4 1 1 4 269 103 119 167
57 4 1 1 4 240 248 145 241
58 4 1 1 4 225 125 174 122
59 4 1 1 4 240 145 137 241
60 4 1 1 4 137 238 129 240
61 4 1 1 4 125 225 174 228
62 4 1 1 4 121 252 251 148
63 4 1 1 4 251 224 252 121
64 4 1 1 4 122 224 120 121
65 4 1 1 4 224 122 120 225
66 4 1 1 4 225 223 120 224
67 4 1 1 4 224 225 279 174
68 4 1 1 4 207 103 40 99
69 4 1 1 4 40 103 207 98
70 4 1 1 4 269 103 98 207
71 4 1 1 4 228 279 225 174
72 4 1 1 4 103 207 41 99
73 4 1 1 4 41 207 103 94
74 4 1 1 4 163 164 145 266
75 4 1 1 4 222 207 103 269
76 4 1 1 4 240 270 232 129
77 4 1 1 4 270 240 137 129
78 4 1 1 4 252 121 174 149
79 4 1 1 4 145 163 266 248
80 4 1 1 4 232 270 126 129
81 4 1 1 4 121 252 174 224
82 4 1 1 4 145 163 248 240
83 4 1 1 4 163 145 137 240
84 4 1 1 4 126 229 270 232
85 4 1 1 4 174 243 252 149
86 4 1 1 4 129 128 233 130
87 4 1 1 4 120 224 222 121
88 4 1 1 4 121 222 120 119
89 4 1 1 4 224 120 222 223
90 4 1 1 4 224 279 252 174
91 4 1 1 4 233 232 128 129
92 4 1 1 4 243 252 279 174
93 4 1 1 4 270 137 176 129
94 4 1 1 4 128 232 126 129
95 4 1 1 4 176 126 270 129
96 4 1 1 4 231 126 232 229
97 4 1 1 4 240 137 163 270
98 4 1 1 4 248 163 266 277
99 4 1 1 4 228 124 126 125
100 4 1 1 4 277 248 163 240
101 4 1 1 4 243 174 140 149
102 4 1 1 4 227 126 229 228
103 4 1 1 4 125 225 124 122
104 4 1 1 4 225 124 228 125
105 4 1 1 4 176 163 137 270
106 4 1 1 4 240 163 277 270
107 4 1 1 4 125 131 228 174
108 4 1 1 4 233 232 231 128
109 4 1 1 4 234 243 279 174
110 4 1 1 4 126 231 232 128
111 4 1 1 4 126 229 231 227
112 4 1 1 4 174 234 228 279
113 4 1 1 4 220 207 41 94
114 4 1 1 4 32 103 117 94
115 4 1 1 4 103 220 94 207
116 4 1 1 4 118 120 222 119
117 4 1 1 4 223 221 120 222
118 4 1 1 4 234 243 174 140
119 4 1 1 4 208 269 251 148
120 4 1 1 4 148 208 269 167
121 4 1 1 4 208 92 269 167
122 4 1 1 4 167 92 30 105
123 4 1 1 4 39 92 269 208
124 4 1 1 4 128 237 233 130
125 4 1 1 4 118 222 103 119
126 4 1 1 4 227 124 126 228
127 4 1 1 4 225 123 124 122
128 4 1 1 4 126 231 128 124
129 4 1 1 4 228 227 124 225
130 4 1 1 4 221 207 103 222
131 4 1 1 4 33 42 220 93
132 4 1 1 4 42 33 220 94
133 4 1 1 4 124 126 231 227
134 4 1 1 4 174 131 234 140
135 4 1 1 4 231 237 233 128
136 4 1 1 4 231 237 128 281
137 4 1 1 4 124 231 128 281
138 4 1 1 4 120 123 225 122
139 4 1 1 4 223 120 123 225
140 4 1 1 4 234 174 228 131
141 4 1 1 4 118 120 221 222
142 4 1 1 4 220 103 94 117
143 4 1 1 4 124 281 226 227
144 4 1 1 4 103 220 207 221
145 4 1 1 4 281 124 226 178
146 4 1 1 4 281 124 231 227
147 4 1 1 4 222 118 103 221
148 4 1 1 4 178 128 237 281
149 4 1 1 4 128 178 124 281
150 4 1 1 4 130 128 237 134
151 4 1 1 4 134 128 237 178
152 4 1 1 4 227 226 124 225
153 4 1 1 4 123 124 178 226
154 4 1 1 4 117 93 33 220
155 4 1 1 4 220 33 117 94
156 4 1 1 4 123 225 124 226
157 4 1 1 4 127 228 126 125
158 4 1 1 4 167 148 208 105
159 4 1 1 4 208 92 167 105
160 4 1 1 4 220 103 118 221
161 4 1 1 4 126 230 229 228
162 4 1 1 4 178 237 156 281
163 4 1 1 4 237 178 156 134
164 4 1 1 4 236 277 176 270
165 4 1 1 4 163 176 133 277
166 4 1 1 4 117 103 118 220
167 4 1 1 4 123 226 223 225
168 4 1 1 4 243 234 242 140
169 4 1 1 4 270 126 230 229
170 4 1 1 4 178 161 226 281
171 4 1 1 4 281 237 156 259
172 4 1 1 4 126 270 230 176
173 4 1 1 4 123 178 161 226
174 4 1 1 4 131 228 127 125
175 4 1 1 4 131 242 234 140
176 4 1 1 4 92 38 29 105
177 4 1 1 4 97 29 38 105
178 4 1 1 4 208 97 38 105
179 4 1 1 4 38 92 208 105
180 4 1 1 4 313 312 217 64
181 4 1 1 4 312 313 217 46
182 4 1 1 4 93 117 212 220
183 4 1 1 4 46 114 313 217
184 4 1 1 4 114 46 312 217
185 4 1 1 4 171 216 274 83
186 4 1 1 4 234 228 230 131
187 4 1 1 4 220 212 93 42
188 4 1 1 4 93 33 109 117
189 4 1 1 4 247 246 143 140
190 4 1 1 4 139 143 246 140
191 4 1 1 4 131 139 242 140
192 4 1 1 4 216 305 289 202
193 4 1 1 4 246 247 243 140
194 4 1 1 4 246 243 242 140
195 4 1 1 4 277 176 133 236
196 4 1 1 4 264 226 161 281
197 4 1 1 4 284 111 214 86
198 4 1 1 4 161 178 156 281
199 4 1 1 4 274 305 216 202
200 4 1 1 4 228 127 126 230
201 4 1 1 4 117 109 93 212
202 4 1 1 4 237 258 134 156
203 4 1 1 4 230 236 176 270
204 4 1 1 4 243 247 252 149
205 4 1 1 4 126 127 176 230
206 4 1 1 4 281 156 161 259
207 4 1 1 4 237 258 156 259
208 4 1 1 4 247 243 140 149
209 4 1 1 4 127 230 228 131
210 4 1 1 4 156 261 161 259
211 4 1 1 4 210 274 84 171
212 4 1 1 4 311 172 48 314
213 4 1 1 4 275 314 311 66
214 4 1 1 4 139 246 242 140
215 4 1 1 4 107 210 84 171
216 4 1 1 4 221 120 180 223
217 4 1 1 4 111 168 214 82
218 4 1 1 4 163 266 142 164
219 4 1 1 4 161 264 281 259
220 4 1 1 4 324 322 56 215
221 4 1 1 4 324 322 215 74
222 4 1 1 4 223 180 123 120
223 4 1 1 4 271 214 168 82
224 4 1 1 4 266 163 142 277
225 4 1 1 4 140 143 247 144
226 4 1 1 4 120 221 180 118
227 4 1 1 4 264 161 261 259
228 4 1 1 4 236 176 133 230
229 4 1 1 4 176 127 133 230
230 4 1 1 4 283 161 263 264
231 4 1 1 4 220 118 280 221
232 4 1 1 4 155 134 258 156
233 4 1 1 4 25 216 90 83
234 4 1 1 4 113 16 90 83
235 4 1 1 4 223 226 123 283
236 4 1 1 4 161 226 283 123
237 4 1 1 4 118 220 280 117
238 4 1 1 4 282 238 239 179
239 4 1 1 4 233 239 135 130
240 4 1 1 4 179 238 239 135
241 4 1 1 4 233 239 238 135
242 4 1 1 4 25 274 216 83
243 4 1 1 4 171 16 113 83
244 4 1 1 4 149 140 247 144
245 4 1 1 4 86 85 284 10
246 4 1 1 4 85 86 284 19
247 4 1 1 4 102 299 173 196
248 4 1 1 4 261 156 161 158
249 4 1 1 4 111 181 10 86
250 4 1 1 4 19 284 214 86
251 4 1 1 4 274 24 84 171
252 4 1 1 4 171 274 24 83
253 4 1 1 4 161 261 263 264
254 4 1 1 4 208 97 105 166
255 4 1 1 4 117 280 212 220
256 4 1 1 4 109 177 162 212
257 4 1 1 4 15 24 171 84
258 4 1 1 4 24 15 171 83
259 4 1 1 4 142 163 133 277
260 4 1 1 4 287 100 93 43
261 4 1 1 4 184 34 93 100
262 4 1 1 4 252 149 150 148
263 4 1 1 4 150 251 252 148
264 4 1 1 4 97 95 166 37
265 4 1 1 4 95 97 166 28
266 4 1 1 4 234 230 235 131
267 4 1 1 4 226 161 283 264
268 4 1 1 4 266 142 164 250
269 4 1 1 4 255 237 130 233
270 4 1 1 4 214 11 111 82
271 4 1 1 4 214 111 11 86
272 4 1 1 4 196 299 173 139
273 4 1 1 4 180 161 160 263
274 4 1 1 4 161 283 263 180
275 4 1 1 4 183 215 286 324
276 4 1 1 4 47 65 272 311
277 4 1 1 4 65 47 272 313
278 4 1 1 4 263 158 261 161
279 4 1 1 4 286 183 113 186
280 4 1 1 4 109 117 177 212
281 4 1 1 4 286 73 321 183
282 4 1 1 4 286 73 183 324
283 4 1 1 4 20 11 214 82
284 4 1 1 4 11 20 214 86
285 4 1 1 4 314 311 172 275
286 4 1 1 4 235 236 133 230
287 4 1 1 4 171 113 216 83
288 4 1 1 4 235 133 127 230
289 4 1 1 4 255 134 130 237
290 4 1 1 4 251 150 208 148
291 4 1 1 4 263 158 161 160
292 4 1 1 4 105 97 29 166
293 4 1 1 4 208 38 97 268
294 4 1 1 4 183 73 321 324
295 4 1 1 4 55 183 321 324
296 4 1 1 4 113 90 216 83
297 4 1 1 4 234 235 242 131
298 4 1 1 4 223 180 221 283
299 4 1 1 4 245 277 133 236
300 4 1 1 4 230 127 235 131
301 4 1 1 4 166 95 28 115
302 4 1 1 4 37 268 218 95
303 4 1 1 4 242 235 276 139
304 4 1 1 4 93 184 100 287
305 4 1 1 4 313 114 169 217
306 4 1 1 4 158 157 108 261
307 4 1 1 4 261 108 158 262
308 4 1 1 4 153 152 291 188
309 4 1 1 4 246 299 196 139
310 4 1 1 4 107 84 15 171
311 4 1 1 4 274 84 24 210
312 4 1 1 4 180 223 123 283
313 4 1 1 4 161 180 123 283
314 4 1 1 4 156 260 261 259
315 4 1 1 4 51 69 165 307
316 4 1 1 4 69 51 165 316
317 4 1 1 4 274 202 293 305
318 4 1 1 4 250 142 164 147
319 4 1 1 4 139 242 235 131
320 4 1 1 4 257 282 239 179
321 4 1 1 4 148 150 208 105
322 4 1 1 4 307 213 165 110
323 4 1 1 4 211 157 261 108
324 4 1 1 4 262 261 108 211
325 4 1 1 4 308 316 206 50
326 4 1 1 4 316 308 206 68
327 4 1 1 4 202 216 274 171
328 4 1 1 4 165 246 299 196
329 4 1 1 4 280 118 180 221
330 4 1 1 4 215 112 56 324
331 4 1 1 4 112 322 215 56
332 4 1 1 4 93 287 43 212
333 4 1 1 4 109 34 93 184
334 4 1 1 4 93 184 287 212
335 4 1 1 4 136 257 154 153
336 4 1 1 4 307 213 267 165
337 4 1 1 4 149 247 252 150
338 4 1 1 4 166 254 218 115
339 4 1 1 4 184 93 109 212
340 4 1 1 4 144 254 247 150
341 4 1 1 4 280 265 162 212
342 4 1 1 4 280 162 177 212
343 4 1 1 4 168 111 11 82
344 4 1 1 4 20 214 271 82
345 4 1 1 4 277 142 266 245
346 4 1 1 4 101 271 205 296
347 4 1 1 4 271 101 193 296
348 4 1 1 4 210 191 190 107
349 4 1 1 4 295 193 101 296
350 4 1 1 4 278 192 191 175
351 4 1 1 4 168 101 193 271
352 4 1 1 4 210 107 175 191
353 4 1 1 4 278 191 210 175
354 4 1 1 4 101 192 278 175
355 4 1 1 4 295 205 101 278
356 4 1 1 4 294 190 210 191
357 4 1 1 4 190 294 210 293
358 4 1 1 4 101 205 295 296
359 4 1 1 4 192 278 191 295
360 4 1 1 4 101 192 295 278
361 4 1 1 4 191 295 278 294
362 4 1 1 4 278 191 294 210
363 4 1 1 4 101 192 193 295
364 4 1 1 4 294 179 190 191
365 4 1 1 4 179 293 294 190
366 4 1 1 4 191 192 295 138
367 4 1 1 4 241 294 295 191
368 4 1 1 4 282 293 294 179
369 4 1 1 4 241 191 179 294
370 4 1 1 4 295 241 191 138
371 4 1 1 4 179 241 294 282
372 4 1 1 4 191 241 179 138
373 4 1 1 4 218 95 166 115
374 4 1 1 4 245 133 244 236
375 4 1 1 4 145 193 192 295
376 4 1 1 4 295 192 145 138
377 4 1 1 4 241 295 145 138
378 4 1 1 4 296 295 193 248
379 4 1 1 4 193 145 164 266
380 4 1 1 4 296 193 266 248
381 4 1 1 4 69 165 307 267
382 4 1 1 4 69 165 267 316
383 4 1 1 4 145 193 295 248
384 4 1 1 4 248 295 145 241
385 4 1 1 4 193 145 266 248
386 4 1 1 4 118 117 280 177
387 4 1 1 4 58 76 189 325
388 4 1 1 4 76 58 189 318
389 4 1 1 4 102 165 299 196
390 4 1 1 4 258 255 237 134
391 4 1 1 4 49 314 206 67
392 4 1 1 4 67 206 49 308
393 4 1 1 4 275 187 276 290
394 4 1 1 4 76 318 189 292
395 4 1 1 4 76 189 325 292
396 4 1 1 4 159 158 108 262
397 4 1 1 4 311 275 66 209
398 4 1 1 4 172 48 106 311
399 4 1 1 4 244 276 187 290
400 4 1 1 4 157 158 156 261
401 4 1 1 4 280 177 117 212
402 4 1 1 4 292 326 189 211
403 4 1 1 4 64 313 272 217
404 4 1 1 4 46 114 169 313
405 4 1 1 4 172 275 276 206
406 4 1 1 4 286 216 289 186
407 4 1 1 4 51 307 165 110
408 4 1 1 4 213 267 69 307
409 4 1 1 4 285 218 254 115
410 4 1 1 4 291 188 104 170
411 4 1 1 4 274 210 293 171
412 4 1 1 4 104 155 258 157
413 4 1 1 4 287 184 162 212
414 4 1 1 4 306 203 111 329
415 4 1 1 4 107 190 210 171
416 4 1 1 4 190 293 210 171
417 4 1 1 4 109 162 184 212
418 4 1 1 4 299 242 276 139
419 4 1 1 4 257 154 179 136
420 4 1 1 4 195 246 165 143
421 4 1 1 4 260 156 258 259
422 4 1 1 4 196 143 246 139
423 4 1 1 4 202 289 257 305
424 4 1 1 4 273 204 325 170
425 4 1 1 4 97 208 268 166
426 4 1 1 4 277 133 142 245
427 4 1 1 4 291 153 188 170
428 4 1 1 4 127 132 133 235
429 4 1 1 4 309 307 52 110
430 4 1 1 4 309 213 70 307
431 4 1 1 4 104 325 204 170
432 4 1 1 4 108 300 326 197
433 4 1 1 4 183 215 186 286
434 4 1 1 4 186 257 153 154
435 4 1 1 4 157 211 261 260
436 4 1 1 4 112 170 322 56
437 4 1 1 4 215 273 74 322
438 4 1 1 4 189 157 292 211
439 4 1 1 4 162 177 160 263
440 4 1 1 4 162 287 116 184
441 4 1 1 4 247 149 144 150
442 4 1 1 4 158 262 263 261
443 4 1 1 4 206 165 316 267
444 4 1 1 4 165 206 316 102
445 4 1 1 4 165 143 246 196
446 4 1 1 4 133 235 244 236
447 4 1 1 4 202 289 216 186
448 4 1 1 4 188 155 291 104
449 4 1 1 4 127 132 235 131
450 4 1 1 4 257 186 153 289
451 4 1 1 4 280 180 263 283
452 4 1 1 4 177 180 160 263
453 4 1 1 4 246 195 165 298
454 4 1 1 4 266 142 250 245
455 4 1 1 4 152 134 258 155
456 4 1 1 4 215 183 112 324
457 4 1 1 4 130 255 233 239
458 4 1 1 4 75 325 322 170
459 4 1 1 4 57 322 325 170
460 4 1 1 4 108 197 262 300
461 4 1 1 4 239 179 135 136
462 4 1 1 4 130 239 135 136
463 4 1 1 4 180 280 221 283
464 4 1 1 4 276 132 139 235
465 4 1 1 4 263 159 158 160
466 4 1 1 4 293 257 305 202
467 4 1 1 4 247 246 195 143
468 4 1 1 4 285 115 151 182
469 4 1 1 4 276 141 132 244
470 4 1 1 4 179 257 293 190
471 4 1 1 4 293 282 257 179
472 4 1 1 4 311 106 172 275
473 4 1 1 4 186 215 153 289
474 4 1 1 4 216 286 113 186
475 4 1 1 4 299 246 242 139
476 4 1 1 4 319 317 300 61
477 4 1 1 4 317 319 300 79
478 4 1 1 4 244 142 133 245
479 4 1 1 4 142 244 133 141
480 4 1 1 4 263 162 177 280
481 4 1 1 4 162 263 265 280
482 4 1 1 4 157 258 156 155
483 4 1 1 4 134 255 130 152
484 4 1 1 4 37 268 95 166
485 4 1 1 4 37 97 268 166
486 4 1 1 4 285 151 110 182
487 4 1 1 4 132 276 139 173
488 4 1 1 4 106 47 169 311
489 4 1 1 4 311 272 209 65
490 4 1 1 4 235 132 139 131
491 4 1 1 4 152 239 256 255
492 4 1 1 4 244 132 276 235
493 4 1 1 4 263 177 180 280
494 4 1 1 4 326 108 189 211
495 4 1 1 4 159 263 158 262
496 4 1 1 4 105 150 208 166
497 4 1 1 4 246 298 247 195
498 4 1 1 4 219 116 159 265
499 4 1 1 4 159 262 219 265
500 4 1 1 4 276 173 172 206
501 4 1 1 4 206 173 172 102
502 4 1 1 4 260 157 156 261
503 4 1 1 4 256 257 136 153
504 4 1 1 4 256 257 239 136
505 4 1 1 4 280 118 177 180
506 4 1 1 4 141 276 132 173
507 4 1 1 4 268 253 254 166
508 4 1 1 4 187 275 276 172
509 4 1 1 4 326 318 292 59
510 4 1 1 4 318 326 292 77
511 4 1 1 4 136 152 256 153
512 4 1 1 4 239 152 256 136
513 4 1 1 4 116 162 159 265
514 4 1 1 4 60 78 300 326
515 4 1 1 4 78 60 300 317
516 4 1 1 4 61 197 317 300
517 4 1 1 4 197 61 319 300
518 4 1 1 4 216 113 202 186
519 4 1 1 4 268 254 218 166
520 4 1 1 4 262 197 219 300
521 4 1 1 4 300 108 326 211
522 4 1 1 4 253 251 252 150
523 4 1 1 4 204 157 258 260
524 4 1 1 4 164 266 250 330
525 4 1 1 4 157 189 108 211
526 4 1 1 4 265 287 162 212
527 4 1 1 4 170 215 153 112
528 4 1 1 4 268 218 95 166
529 4 1 1 4 215 186 153 112
530 4 1 1 4 104 189 157 292
531 4 1 1 4 155 291 152 188
532 4 1 1 4 206 314 275 67
533 4 1 1 4 172 49 314 102
534 4 1 1 4 47 272 169 311
535 4 1 1 4 47 272 313 169
536 4 1 1 4 60 300 197 326
537 4 1 1 4 60 300 317 197
538 4 1 1 4 291 256 255 152
539 4 1 1 4 202 113 216 171
540 4 1 1 4 254 253 247 150
541 4 1 1 4 150 144 254 151
542 4 1 1 4 157 204 258 104
543 4 1 1 4 116 219 287 265
544 4 1 1 4 143 195 247 144
545 4 1 1 4 173 276 299 206
546 4 1 1 4 206 299 173 102
547 4 1 1 4 59 189 318 292
548 4 1 1 4 189 59 326 292
549 4 1 1 4 215 286 289 186
550 4 1 1 4 298 195 165 110
551 4 1 1 4 202 274 293 171
552 4 1 1 4 290 275 187 209
553 4 1 1 4 300 262 108 211
554 4 1 1 4 141 133 132 244
555 4 1 1 4 150 254 253 166
556 4 1 1 4 166 150 254 151
557 4 1 1 4 275 311 106 209
558 4 1 1 4 179 154 257 190
559 4 1 1 4 287 162 116 265
560 4 1 1 4 155 258 291 104
561 4 1 1 4 190 202 293 171
562 4 1 1 4 150 251 208 253
563 4 1 1 4 163 176 277 270
564 4 1 1 4 258 255 134 152
565 4 1 1 4 183 55 112 324
566 4 1 1 4 73 286 215 324
567 4 1 1 4 152 291 256 153
568 4 1 1 4 111 214 168 330
569 4 1 1 4 115 166 254 151
570 4 1 1 4 170 322 215 112
571 4 1 1 4 102 308 206 50
572 4 1 1 4 206 316 102 50
573 4 1 1 4 263 162 159 160
574 4 1 1 4 189 104 325 292
575 4 1 1 4 213 285 254 110
576 4 1 1 4 179 239 257 136
577 4 1 1 4 272 313 169 217
578 4 1 1 4 235 133 244 132
579 4 1 1 4 275 172 314 206
580 4 1 1 4 168 214 271 330
581 4 1 1 4 256 289 257 153
582 4 1 1 4 195 298 254 110
583 4 1 1 4 276 173 299 139
584 4 1 1 4 187 141 276 244
585 4 1 1 4 159 108 197 262
586 4 1 1 4 114 185 169 217
587 4 1 1 4 250 147 164 330
588 4 1 1 4 258 157 156 260
589 4 1 1 4 215 170 153 273
590 4 1 1 4 273 215 256 153
591 4 1 1 4 159 263 262 265
592 4 1 1 4 325 204 76 292
593 4 1 1 4 58 104 325 189
594 4 1 1 4 256 215 289 153
595 4 1 1 4 201 219 304 287
596 4 1 1 4 116 201 184 287
597 4 1 1 4 206 314 49 102
598 4 1 1 4 308 206 49 102
599 4 1 1 4 267 206 68 316
600 4 1 1 4 102 316 165 50
601 4 1 1 4 298 254 247 195
602 4 1 1 4 162 263 159 265
603 4 1 1 4 215 183 186 112
604 4 1 1 4 115 254 285 151
605 4 1 1 4 110 52 309 182
606 4 1 1 4 285 213 70 309
607 4 1 1 4 187 173 172 276
608 4 1 1 4 260 292 157 211
609 4 1 1 4 253 252 247 150
610 4 1 1 4 285 110 309 182
611 4 1 1 4 151 285 110 254
612 4 1 1 4 173 187 141 276
613 4 1 1 4 307 309 213 110
614 4 1 1 4 215 273 322 170
615 4 1 1 4 267 298 246 165
616 4 1 1 4 35 44 201 91
617 4 1 1 4 53 71 200 310
618 4 1 1 4 36 27 303 96
619 4 1 1 4 63 45 302 315
620 4 1 1 4 72 198 54 323
621 4 1 1 4 204 273 291 170
622 4 1 1 4 211 326 300 78
623 4 1 1 4 60 197 108 326
624 4 1 1 4 291 155 152 258
625 4 1 1 4 104 204 291 170
626 4 1 1 4 197 262 219 159
627 4 1 1 4 197 159 219 116
628 4 1 1 4 195 254 247 144
629 4 1 1 4 319 300 79 219
630 4 1 1 4 61 116 197 319
631 4 1 1 4 169 106 311 209
632 4 1 1 4 153 291 273 170
633 4 1 1 4 273 256 291 153
634 4 1 1 4 130 255 239 152
635 4 1 1 4 244 142 245 328
636 4 1 1 4 142 244 141 328
637 4 1 1 4 219 197 319 300
638 4 1 1 4 253 268 208 166
639 4 1 1 4 267 246 299 165
640 4 1 1 4 286 183 198 113
641 4 1 1 4 187 172 106 275
642 4 1 1 4 267 299 206 165
643 4 1 1 4 299 206 165 102
644 4 1 1 4 206 172 314 102
645 4 1 1 4 292 77 326 211
646 4 1 1 4 189 59 108 326
647 4 1 1 4 204 291 258 104
648 4 1 1 4 187 244 290 328
649 4 1 1 4 202 293 257 190
650 4 1 1 4 152 239 130 136
651 4 1 1 4 325 75 273 170
652 4 1 1 4 322 273 75 170
653 4 1 1 4 304 91 201 44
654 4 1 1 4 303 71 310 200
655 4 1 1 4 27 303 96 200
656 4 1 1 4 45 302 315 199
657 4 1 1 4 72 198 323 301
658 4 1 1 4 292 157 204 260
659 4 1 1 4 201 116 219 287
660 4 1 1 4 150 253 208 166
661 4 1 1 4 165 213 298 110
662 4 1 1 4 110 285 309 213
663 4 1 1 4 272 169 311 209
664 4 1 1 4 217 185 169 288
665 4 1 1 4 202 257 186 154
666 4 1 1 4 157 204 104 292
667 4 1 1 4 298 267 213 165
668 4 1 1 4 203 306 111 330
669 4 1 1 4 298 213 254 110
670 4 1 1 4 255 258 291 152
671 4 1 1 4 289 202 257 186
672 4 1 1 4 301 286 198 113
673 4 1 1 4 273 204 75 325
674 4 1 1 4 57 325 104 170
675 4 1 1 4 106 187 275 209
676 4 1 1 4 204 325 104 292
677 4 1 1 4 154 202 257 190
678 4 1 1 4 219 197 116 319
679 4 1 1 4 290 209 187 328
680 4 1 1 4 147 250 142 328
681 4 1 1 4 151 195 254 110
682 4 1 1 4 144 195 254 151
683 4 1 1 4 169 272 217 288
684 4 1 1 4 320 201 62 304
685 4 1 1 4 271 296 193 330
686 4 1 1 4 193 168 271 330
687 4 1 1 4 286 301 216 113
688 4 1 1 4 88 18 199 302
689 4 1 1 4 244 187 141 328
690 4 1 1 4 26 301 81 198
691 4 1 1 4 285 303 218 115
692 4 1 1 4 183 321 286 198
693 4 1 1 4 219 319 201 304
694 4 1 1 4 250 245 142 328
695 4 1 1 4 182 303 115 200
696 4 1 1 4 62 80 320 304
697 4 1 1 4 306 214 111 330
698 4 1 1 4 203 306 327 329
699 4 1 1 4 198 90 301 113
700 4 1 1 4 303 182 115 285
701 4 1 1 4 217 199 312 114
702 4 1 1 4 9 18 199 88
703 4 1 1 4 193 296 266 330
704 4 1 1 4 164 193 266 330
705 4 1 1 4 301 286 321 198
706 4 1 1 4 187 209 106 328
707 4 1 1 4 81 17 26 198
708 4 1 1 4 201 116 319 219
709 4 1 1 4 185 217 114 329
710 4 1 1 4 199 217 312 302
711 4 1 1 4 106 209 169 328
712 4 1 1 4 218 303 95 115
713 4 1 1 4 304 100 201 287
714 4 1 1 4 100 184 201 287
715 4 1 1 4 303 95 115 200
716 4 1 1 4 216 301 90 113
717 4 1 1 4 272 169 209 328
718 4 1 1 4 306 203 327 330
719 4 1 1 4 182 309 303 200
720 4 1 1 4 217 185 288 329
721 4 1 1 4 147 327 250 328
722 4 1 1 4 71 53 200 309
723 4 1 1 4 44 35 201 100
724 4 1 1 4 27 36 303 95
725 4 1 1 4 45 63 302 312
726 4 1 1 4 72 198 321 54
727 4 1 1 4 302 85 199 329
728 4 1 1 4 201 320 91 304
729 4 1 1 4 310 96 303 200
730 4 1 1 4 199 315 88 302
731 4 1 1 4 301 323 81 198
732 4 1 1 4 303 285 309 182
733 4 1 1 4 201 100 304 44
734 4 1 1 4 71 303 309 200
735 4 1 1 4 27 303 200 95
736 4 1 1 4 45 302 199 312
737 4 1 1 4 198 72 321 301
738 4 1 1 4 169 288 185 328
739 4 1 1 4 203 181 111 329
740 4 1 1 4 142 141 146 328
741 4 1 1 4 244 245 249 328
742 4 1 1 4 185 288 327 328
743 4 1 1 4 169 272 288 328
744 4 1 1 4 185 327 147 328
745 4 1 1 4 250 327 288 328
746 4 1 1 4 319 62 201 304
747 4 1 1 4 199 18 85 302
748 4 1 1 4 90 301 26 198
749 4 1 1 4 111 168 194 330
750 4 1 1 4 297 271 214 330
751 4 1 1 4 62 80 304 319
752 4 1 1 4 114 217 199 329
753 4 1 1 4 18 9 199 85
754 4 1 1 4 244 249 290 328
755 4 1 1 4 146 141 187 328
756 4 1 1 4 81 323 1 198
757 4 1 1 4 88 315 4 302
758 4 1 1 4 2 199 315 88
759 4 1 1 4 323 3 301 81
760 4 1 1 4 96 303 8 310
761 4 1 1 4 310 6 96 200
762 4 1 1 4 5 201 320 91
763 4 1 1 4 91 320 7 304
764 4 1 1 4 90 26 17 198
765 4 1 1 4 199 217 302 329
766 4 1 1 4 85 181 199 329
767 4 1 1 4 302 284 85 329
768 4 1 1 4 286 72 301 321
769 4 1 1 4 198 183 321 54
770 4 1 1 4 114 45 199 312
771 4 1 1 4 63 312 217 302
772 4 1 1 4 203 327 185 329
773 4 1 1 4 288 327 306 329
774 4 1 1 4 115 95 27 200
775 4 1 1 4 303 36 218 95
776 4 1 1 4 185 327 288 329
777 4 1 1 4 100 304 44 287
778 4 1 1 4 201 35 184 100
779 4 1 1 4 250 327 147 330
780 4 1 1 4 147 142 146 328
781 4 1 1 4 249 245 250 328
782 4 1 1 4 187 106 146 328
783 4 1 1 4 249 209 290 328
784 4 1 1 4 71 303 285 309
785 4 1 1 4 200 182 309 53
786 4 1 1 4 271 297 296 330
787 4 1 1 4 168 193 194 330
788 4 1 1 4 201 5 35 91
789 4 1 1 4 7 91 304 44
790 4 1 1 4 6 27 96 200
791 4 1 1 4 2 199 45 315
792 4 1 1 4 63 4 315 302
793 4 1 1 4 3 301 72 323
794 4 1 1 4 200 310 6 53
795 4 1 1 4 303 71 8 310
796 4 1 1 4 303 8 36 96
797 4 1 1 4 198 323 1 54
798 4 1 1 4 106 169 146 328
799 4 1 1 4 272 209 249 328
800 4 1 1 4 116 62 201 319
801 4 1 1 4 319 219 80 304
802 4 1 1 4 147 327 203 330
803 4 1 1 4 181 199 9 85
804 4 1 1 4 18 85 302 284
805 4 1 1 4 306 327 250 330
806 4 1 1 4 203 111 194 330
807 4 1 1 4 297 214 306 330
808 4 1 1 4 26 216 301 90
809 4 1 1 4 17 90 198 113
810 4 1 1 4 101 12 13 87
811 4 1 1 4 271 21 20 82
812 4 1 1 4 168 11 12 82
813 4 1 1 4 175 13 14 89
814 4 1 1 4 87 21 22 205
815 4 1 1 4 84 15 14 107
816 4 1 1 4 278 23 22 89
817 4 1 1 4 23 24 84 210
818 4 1 1 4 98 30 31 167
819 4 1 1 4 269 39 40 98
820 4 1 1 4 32 31 103 99
821 4 1 1 4 41 207 40 99
822 4 1 1 4 33 32 117 94
823 4 1 1 4 41 42 220 94
824 4 1 1 4 320 7 5 91
825 4 1 1 4 96 8 6 310
826 4 1 1 4 315 4 2 88
827 4 1 1 4 323 1 3 81
828 4 1 1 4 68 69 267 316
829 4 1 1 4 51 165 316 50
830 4 1 1 4 5 201 62 320
831 4 1 1 4 80 7 320 304
832 4 1 1 4 85 18 19 284
833 4 1 1 4 181 9 10 85
834 4 1 1 4 90 17 16 113
835 4 1 1 4 26 25 216 90
836 4 1 1 4 92 39 38 208
837 4 1 1 4 29 30 92 105
838 4 1 1 4 199 2 9 88
839 4 1 1 4 4 18 88 302
840 4 1 1 4 204 75 325 76
841 4 1 1 4 58 325 104 57
842 4 1 1 4 212 43 93 42
843 4 1 1 4 33 34 93 109
844 4 1 1 4 60 108 59 326
845 4 1 1 4 77 326 211 78
846 4 1 1 4 3 26 301 81
847 4 1 1 4 1 17 81 198
848 4 1 1 4 218 36 37 95
849 4 1 1 4 27 28 95 115
850 4 1 1 4 215 74 73 324
851 4 1 1 4 56 112 55 324
852 4 1 1 4 114 46 45 312
853 4 1 1 4 217 64 312 63
854 4 1 1 4 164 194 193 330
855 4 1 1 4 266 296 297 330
856 4 1 1 4 209 66 311 65
857 4 1 1 4 47 106 48 311
858 4 1 1 4 62 116 61 319
859 4 1 1 4 219 79 319 80
860 4 1 1 4 28 29 97 166
861 4 1 1 4 38 37 97 268
862 4 1 1 4 172 49 48 314
863 4 1 1 4 66 275 314 67
864 4 1 1 4 287 44 100 43
865 4 1 1 4 35 34 184 100
866 4 1 1 4 146 169 185 328
867 4 1 1 4 249 288 272 328
868 4 1 1 4 52 307 51 110
869 4 1 1 4 69 70 213 307
870 4 1 1 4 182 52 309 53
871 4 1 1 4 71 285 70 309
872 4 1 1 4 169 47 46 313
873 4 1 1 4 65 313 272 64
874 4 1 1 4 25 24 274 83
875 4 1 1 4 171 15 16 83
876 4 1 1 4 249 250 288 328
877 4 1 1 4 185 147 146 328
878 4 1 1 4 286 73 72 321
879 4 1 1 4 55 321 183 54
880 4 1 1 4 214 20 19 86
881 4 1 1 4 10 11 111 86
882 4 1 1 4 194 164 147 330
883 4 1 1 4 250 266 297 330
884 4 1 1 4 170 57 322 56
885 4 1 1 4 74 273 75 322
886 4 1 1 4 203 185 181 329
887 4 1 1 4 288 306 284 329
888 4 1 1 4 102 49 308 50
889 4 1 1 4 206 67 68 308
890 4 1 1 4 181 185 114 329
891 4 1 1 4 217 288 284 329
892 4 1 1 4 185 203 147 327
893 4 1 1 4 306 288 250 327
894 4 1 1 4 250 297 306 330
895 4 1 1 4 194 147 203 330
896 4 1 1 4 76 77 318 292
897 4 1 1 4 58 59 189 318
898 4 1 1 4 317 60 197 61
899 4 1 1 4 78 317 300 79
900 4 1 1 4 181 114 199 329
901 4 1 1 4 217 284 302 329
902 4 1 1 4 284 111 306 214
903 4 1 1 4 284 306 111 329
904 4 1 1 4 329 85 10 284
905 4 1 1 4 329 10 85 181
906 4 1 1 4 86 329 10 284
907 4 1 1 4 86 10 329 181
908 4 1 1 4 111 329 86 284
909 4 1 1 4 111 86 329 181
$ENDELM
